/* XPM */
static char * tool_pan_xpm[] = {
"28 27 185 2",
"  	c None",
". 	c #EFEFEF",
"+ 	c #B9BABB",
"@ 	c #8C8D90",
"# 	c #F1F1F6",
"$ 	c #F0F0F5",
"% 	c #E5E7EC",
"& 	c #DCDEE3",
"* 	c #EFEFF4",
"= 	c #E4E6EB",
"- 	c #D7D9DD",
"; 	c #A3A4A6",
"> 	c #A0A1A3",
", 	c #D6D8DC",
"' 	c #DBDDE2",
") 	c #EEEEF3",
"! 	c #E3E5EA",
"~ 	c #929394",
"{ 	c #9F9FA0",
"] 	c #A4A4A4",
"^ 	c #8E8E8F",
"/ 	c #DDDEE3",
"( 	c #CFD0D5",
"_ 	c #DADCE1",
": 	c #EDEDF2",
"< 	c #E2E4E9",
"[ 	c #C1C2C6",
"} 	c #89898A",
"| 	c #A2A3A5",
"1 	c #727272",
"2 	c #F0F0F0",
"3 	c #F2F2F2",
"4 	c #777777",
"5 	c #757575",
"6 	c #9E9FA1",
"7 	c #D9DBE0",
"8 	c #ECEDF2",
"9 	c #E1E3E8",
"0 	c #DADCE0",
"a 	c #717172",
"b 	c #C4C4C4",
"c 	c #8F8F8F",
"d 	c #717171",
"e 	c #F7F7F7",
"f 	c #A9A9A9",
"g 	c #ECECEC",
"h 	c #6D6D6D",
"i 	c #DDDFE4",
"j 	c #D8DADF",
"k 	c #EBECF1",
"l 	c #E0E2E7",
"m 	c #B8BABD",
"n 	c #949494",
"o 	c #CECECE",
"p 	c #6E6E6E",
"q 	c #CFCFCF",
"r 	c #7F8080",
"s 	c #97989A",
"t 	c #878789",
"u 	c #C9CACE",
"v 	c #D8D9DE",
"w 	c #EAEBF0",
"x 	c #DFE1E6",
"y 	c #ACADB0",
"z 	c #A8A8A8",
"A 	c #E8E8E8",
"B 	c #767676",
"C 	c #E5E5E5",
"D 	c #AEAEAE",
"E 	c #D7D8DD",
"F 	c #EAEAEF",
"G 	c #DFE0E6",
"H 	c #A7A7A7",
"I 	c #E9E9E9",
"J 	c #747474",
"K 	c #E4E4E4",
"L 	c #6C6C6C",
"M 	c #ABABAB",
"N 	c #6B6C6C",
"O 	c #CACBD0",
"P 	c #D6D8DD",
"Q 	c #E9E9EE",
"R 	c #DEDFE5",
"S 	c #ABABAF",
"T 	c #A6A6A6",
"U 	c #838383",
"V 	c #828282",
"W 	c #BABBBF",
"X 	c #D5D7DC",
"Y 	c #E8E9EE",
"Z 	c #DDDEE4",
"` 	c #A9AAAD",
" .	c #EAEAEA",
"..	c #808080",
"+.	c #818181",
"@.	c #7D7D7D",
"#.	c #BBBBC0",
"$.	c #D4D6DB",
"%.	c #E7E8ED",
"&.	c #DCDDE3",
"*.	c #D8D8DE",
"=.	c #838384",
"-.	c #707171",
";.	c #ADADB0",
">.	c #A8A8AC",
",.	c #A3A3A3",
"'.	c #7F7F7F",
").	c #787878",
"!.	c #BCBDC1",
"~.	c #D3D5DA",
"{.	c #E6E7EC",
"].	c #939394",
"^.	c #DEDEDE",
"/.	c #777878",
"(.	c #A1A1A1",
"_.	c #BEBFC3",
":.	c #D3D4D9",
"<.	c #E5E6EB",
"[.	c #9E9EA1",
"}.	c #B1B1B1",
"|.	c #777778",
"1.	c #BFC1C5",
"2.	c #D2D3D8",
"3.	c #A8AAAD",
"4.	c #8B8C8C",
"5.	c #CBCBCB",
"6.	c #676767",
"7.	c #D1D2D7",
"8.	c #6D6D6E",
"9.	c #D2D2D2",
"0.	c #5A5A5A",
"a.	c #C7C8CD",
"b.	c #D0D1D6",
"c.	c #E3E4E9",
"d.	c #D8D9DF",
"e.	c #AAABAF",
"f.	c #7A7A7A",
"g.	c #E6E6E6",
"h.	c #535353",
"i.	c #CFD1D6",
"j.	c #E2E3E8",
"k.	c #D7D8DE",
"l.	c #D6D7DD",
"m.	c #C0C0C0",
"n.	c #C3C3C3",
"o.	c #717173",
"p.	c #CED0D5",
"q.	c #E1E2E7",
"r.	c #B8B8BD",
"s.	c #5F5F60",
"t.	c #DFDFDF",
"u.	c #9F9F9F",
"v.	c #8D8D90",
"w.	c #CECFD4",
"x.	c #D5D6DC",
"y.	c #A2A2A6",
"z.	c #79797A",
"A.	c #A9AAAE",
"B.	c #CDCED3",
"C.	c #D4D5DB",
"D.	c #808082",
"E.	c #868686",
"F.	c #F6F6F6",
"G.	c #535454",
"H.	c #C5C6CC",
"I.	c #CCCDD2",
"J.	c #DEE0E5",
"K.	c #D3D4DA",
"L.	c #6A6A6B",
"M.	c #DBDBDB",
"N.	c #D3D3D3",
"O.	c #BBBBBB",
"P.	c #575758",
"Q.	c #CBCCD1",
"R.	c #D2D3D9",
"S.	c #8D8E91",
"T.	c #646465",
"U.	c #5F5F5F",
"V.	c #5F6060",
"W.	c #5E5F5F",
"X.	c #5E5E5F",
"Y.	c #606061",
"Z.	c #656666",
"`.	c #6E6E70",
" +	c #919295",
". + @ @ @ @ @ @ @ @ @ @ @ @ @ @ @ @ @ @ @ @ @ @ @ @ + . ",
"+ @ # # # # # # # # # # # # # # # # # # # # # # # # @ + ",
"@ $ % % % % % % % % % % % % % % % % % % % % % % % % & @ ",
"@ * = = = = = = = = = = - ; > , = = = = = = = = = = ' @ ",
"@ ) ! ! ! ! ! ! ! ! ! ! ~ { ] ^ / ( ! ! ! ! ! ! ! ! _ @ ",
"@ : < < < < < < < [ } | 1 2 3 1 4 5 6 < < < < < < < 7 @ ",
"@ 8 9 9 9 9 9 9 0 a b c d e e d f g h i 9 9 9 9 9 9 j @ ",
"@ k l l l l l l m n e o p e e 1 q e r s t u l l l l v @ ",
"@ w x x x x x x y z e A B e e 4 C e 4 B D p x x x x E @ ",
"@ F G G G G G G y H e I J e e 5 K e L M e N O G G G P @ ",
"@ Q R R R R R R S T e I d e e 1 K e U o e V W R R R X @ ",
"@ Y Z Z Z Z Z Z ` ] e  ...e e +.C e +.q e @.#.Z Z Z $.@ ",
"@ %.&.&.*.=.-.;.>.,.e e e e e e e e '.q e ).!.&.&.&.~.@ ",
"@ {.' ' | ].^.)./.(.e e e e e e e e e e e J _.' ' ' :.@ ",
"@ <._ _ [.}.e  .|.z e e e e e e e e e e e L 1._ _ _ 2.@ ",
"@ = 7 7 3.4.e e  .5.e e e e e e e e e e e 6.[ 7 7 7 7.@ ",
"@ ! j j X 8.9.e e e e e e e e e e e e e e 0.a.j j j b.@ ",
"@ c.d.d.d.e.f.e e e e e e e e e e e e e g.h.d.d.d.d.i.@ ",
"@ j.k.k.k.l.a m.e e e e e e e e e e e e n.o.k.k.k.k.p.@ ",
"@ q.l.l.l.l.r.s.t.e e e e e e e e e e e u.v.l.l.l.l.w.@ ",
"@ l x.x.x.x.x.y.h . e e e e e e e e e e z.A.x.x.x.x.B.@ ",
"@ x C.C.C.C.C.C.D.E.F.e e e e e e e e e G.H.C.C.C.C.I.@ ",
"@ J.K.K.K.K.K.K.( L.'.q M.M.M.M.M.M.N.O.P.K.K.K.K.K.Q.@ ",
"@ i R.R.R.R.R.R.R.w.S.T.U.V.W.X.X.Y.Z.`. +R.R.R.R.R.O @ ",
"@ i R.R.R.R.R.R.R.R.R.R.R.R.R.R.R.R.R.R.R.R.R.R.R.R.O @ ",
"+ @ O O O O O O O O O O O O O O O O O O O O O O O O @ + ",
". + @ @ @ @ @ @ @ @ @ @ @ @ @ @ @ @ @ @ @ @ @ @ @ @ + . "};
