/* XPM */
static char * tool_zoom_xpm[] = {
"28 28 193 2",
"  	c None",
". 	c #EFEFEF",
"+ 	c #B9BABB",
"@ 	c #8C8D90",
"# 	c #F1F1F6",
"$ 	c #F0F0F5",
"% 	c #E5E7EC",
"& 	c #DCDEE3",
"* 	c #EFEFF4",
"= 	c #E4E6EB",
"- 	c #DBDDE2",
"; 	c #EEEEF3",
"> 	c #E3E5EA",
", 	c #B8B9BC",
"' 	c #969799",
") 	c #7A7A7B",
"! 	c #757677",
"~ 	c #939496",
"{ 	c #DADCE1",
"] 	c #EDEEF3",
"^ 	c #E2E4E9",
"/ 	c #D3D4D9",
"( 	c #868788",
"_ 	c #6A6A6A",
": 	c #898989",
"< 	c #999999",
"[ 	c #989898",
"} 	c #7F7F7F",
"| 	c #5A5A5B",
"1 	c #7E7E80",
"2 	c #D5D7DC",
"3 	c #D9DBE0",
"4 	c #ECEDF2",
"5 	c #E1E3E8",
"6 	c #7A7B7B",
"7 	c #848485",
"8 	c #BFBFBF",
"9 	c #CECECE",
"0 	c #D5D5D5",
"a 	c #D4D4D4",
"b 	c #CBCBCB",
"c 	c #BABABA",
"d 	c #6D6D6D",
"e 	c #626363",
"f 	c #D9DADF",
"g 	c #ECECF1",
"h 	c #E1E2E8",
"i 	c #9A9A9C",
"j 	c #7A7A7A",
"k 	c #C6C6C6",
"l 	c #D2D2D2",
"m 	c #E1E1E1",
"n 	c #E8E8E8",
"o 	c #D3D3D3",
"p 	c #C8C8C8",
"q 	c #C4C4C4",
"r 	c #606060",
"s 	c #8E8F92",
"t 	c #D8DADF",
"u 	c #EBEBF0",
"v 	c #E0E1E7",
"w 	c #DBDCE1",
"x 	c #6C6C6C",
"y 	c #B3B3B3",
"z 	c #DEDEDE",
"A 	c #F1F1F1",
"B 	c #F8F8F8",
"C 	c #E5E5E5",
"D 	c #A8A8A8",
"E 	c #4B4B4B",
"F 	c #D9DAE0",
"G 	c #D7D9DE",
"H 	c #EAEBF0",
"I 	c #DFE1E6",
"J 	c #C0C1C5",
"K 	c #6D6E6E",
"L 	c #C7C7C7",
"M 	c #CFCFCF",
"N 	c #EEEEEE",
"O 	c #EBEBEB",
"P 	c #DCDCDC",
"Q 	c #CACACA",
"R 	c #BFC0C4",
"S 	c #D6D8DD",
"T 	c #E9EAEF",
"U 	c #DEE0E5",
"V 	c #ACADB0",
"W 	c #7D7D7D",
"X 	c #D8D8D8",
"Y 	c #DDDDDD",
"Z 	c #CCCCCC",
"` 	c #5E5E5E",
" .	c #A5A7AA",
"..	c #E8E9EE",
"+.	c #DDDFE4",
"@.	c #BDBEC2",
"#.	c #707070",
"$.	c #4E4E4F",
"%.	c #B7B8BC",
"&.	c #D5D6DB",
"*.	c #E7E8ED",
"=.	c #D0D2D7",
"-.	c #676767",
";.	c #BBBBBB",
">.	c #AFAFAF",
",.	c #4A4A4A",
"'.	c #D5D7DB",
").	c #D4D5DA",
"!.	c #DCDDE3",
"~.	c #8A8A8C",
"{.	c #818181",
"].	c #666666",
"^.	c #7B7B7D",
"/.	c #D3D5DA",
"(.	c #E6E7EC",
"_.	c #DBDCE2",
":.	c #CFD0D5",
"<.	c #696969",
"[.	c #8C8C8C",
"}.	c #C5C5C5",
"|.	c #C3C3C3",
"1.	c #7C7C7C",
"2.	c #575758",
"3.	c #A1A2A5",
"4.	c #D2D4D9",
"5.	c #E5E6EB",
"6.	c #DADBE1",
"7.	c #C3C4C9",
"8.	c #727273",
"9.	c #6E6E6E",
"0.	c #929292",
"a.	c #A9A9A9",
"b.	c #A5A5A5",
"c.	c #8E8E8E",
"d.	c #5D5D5D",
"e.	c #636364",
"f.	c #5F5F60",
"g.	c #585858",
"h.	c #8E8E90",
"i.	c #CECFD4",
"j.	c #D1D3D8",
"k.	c #E4E5EA",
"l.	c #D4D5DB",
"m.	c #9D9EA1",
"n.	c #737375",
"o.	c #999A9D",
"p.	c #D6D7DD",
"q.	c #CBCCD2",
"r.	c #5D5D5E",
"s.	c #616161",
"t.	c #79797A",
"u.	c #CCCCD2",
"v.	c #D1D2D7",
"w.	c #707071",
"x.	c #4E4E4E",
"y.	c #575757",
"z.	c #767777",
"A.	c #C9CBCF",
"B.	c #D0D1D6",
"C.	c #505050",
"D.	c #757575",
"E.	c #C8CACE",
"F.	c #E2E3E8",
"G.	c #D7D8DE",
"H.	c #B8B9BE",
"I.	c #4C4C4C",
"J.	c #565656",
"K.	c #717172",
"L.	c #C6C7CC",
"M.	c #CED0D5",
"N.	c #E1E2E7",
"O.	c #BABBC0",
"P.	c #525253",
"Q.	c #5F5F5F",
"R.	c #6F7070",
"S.	c #C4C5CA",
"T.	c #CDCFD4",
"U.	c #E0E2E7",
"V.	c #D5D6DC",
"W.	c #BCBDC2",
"X.	c #535354",
"Y.	c #555555",
"Z.	c #767677",
"`.	c #CDCED3",
" +	c #BEBFC4",
".+	c #878789",
"++	c #CCCDD2",
"@+	c #D3D4DA",
"#+	c #626263",
"$+	c #CFD0D6",
"%+	c #CBCCD1",
"&+	c #D2D3D9",
"*+	c #CACBD0",
". + @ @ @ @ @ @ @ @ @ @ @ @ @ @ @ @ @ @ @ @ @ @ @ @ + . ",
"+ @ # # # # # # # # # # # # # # # # # # # # # # # # @ + ",
"@ $ % % % % % % % % % % % % % % % % % % % % % % % % & @ ",
"@ * = = = = = = = = = = = = = = = = = = = = = = = = - @ ",
"@ ; > > > > > , ' ) ! ~ , > > > > > > > > > > > > > { @ ",
"@ ] ^ ^ ^ / ( _ : < [ } | 1 2 ^ ^ ^ ^ ^ ^ ^ ^ ^ ^ ^ 3 @ ",
"@ 4 5 5 & 6 7 8 9 0 a b c d e & 5 5 5 5 5 5 5 5 5 5 f @ ",
"@ g h h i j k l m n m o p q r s h h h h h h h h h h t @ ",
"@ u v w x y b z A B C l p p D E F v v v v v v v v v G @ ",
"@ H I J K L M m N O P Q p p k E R I I I I I I I I I S @ ",
"@ T U V W p b X Y X Z p p p p `  .U U U U U U U U U 2 @ ",
"@ ..+.@.#.p p p Q p p p p p L $.%.+.+.+.+.+.+.+.+.+.&.@ ",
"@ *.& =.-.;.p p p p p p p p >.,.'.& & & & & & & & & ).@ ",
"@ *.!.!.~.{.p p p p p p p L ].^.!.!.!.!.!.!.!.!.!.!./.@ ",
"@ (._._.:.<.[.}.p p p p |.1.2.3._._._._._._._._._._.4.@ ",
"@ 5.6.6.6.7.8.9.0.a.b.c.d.e.f.g.h.' i.6.6.6.6.6.6.6.j.@ ",
"@ k.F F F F l.m.^.d.` n.o.p.q.r.g.s.t.u.F F F F F F v.@ ",
"@ > t t t t t t t t t t t t t w.x.y.s.z.A.t t t t t B.@ ",
"@ ^ G G G G G G G G G G G G G %.C.x.y.r D.E.G G G G :.@ ",
"@ F.G.G.G.G.G.G.G.G.G.G.G.G.G.G.H.C.I.J.r K.L.G.G.G.M.@ ",
"@ N.p.p.p.p.p.p.p.p.p.p.p.p.p.p.p.O.P.I.J.Q.R.S.p.p.T.@ ",
"@ U.V.V.V.V.V.V.V.V.V.V.V.V.V.V.V.V.W.X.I.Y.d.Z.V.V.`.@ ",
"@ I l.l.l.l.l.l.l.l.l.l.l.l.l.l.l.l.l. +J.I.Y..+l.l.++@ ",
"@ U @+@+@+@+@+@+@+@+@+@+@+@+@+@+@+@+@+@+ +#+^.$+@+@+%+@ ",
"@ +.&+&+&+&+&+&+&+&+&+&+&+&+&+&+&+&+&+&+&+&+&+&+&+&+*+@ ",
"@ +.&+&+&+&+&+&+&+&+&+&+&+&+&+&+&+&+&+&+&+&+&+&+&+&+*+@ ",
"+ @ *+*+*+*+*+*+*+*+*+*+*+*+*+*+*+*+*+*+*+*+*+*+*+*+@ + ",
". + @ @ @ @ @ @ @ @ @ @ @ @ @ @ @ @ @ @ @ @ @ @ @ @ + . "};
